# xmcd
# Track frame offsets:
# 150
# 19849
# 36576
# 57519
# 72096
# 92653
# 108654
# 126685
# 145588
# 158578
# 180214
# 200017
# 216557
# 238103
# 256639
# 270560
#
# Disc length: 3903 seconds
# Revision: 0
# Processed by: cddbd v1.5.2PL0 Copyright (c) Steve Scherf et al.
# Submitted via: VisiTrax 2.11.1.266 - For more info visit www.synapsa.com
#
DISCID=ed0f3d10
DTITLE=Darcy Perry Band - Phoenix
DYEAR=2009
DGENRE=
TTITLE0=Soul Of A Man
TTITLE1=Get The Hell Out Of My Face
TTITLE2=Wish It Would Rain
TTITLE3=Just Can' Help It
TTITLE4=Circles
TTITLE5=Club A Go Go
TTITLE6=What Do You Want From Me
TTITLE7=Phoenix
TTITLE8=Once It's Done
TTITLE9=Another Funeral For A Friend
TTITLE10=Big Man
TTITLE11=Stop The Traffic
TTITLE12=Blues Is A Healer
TTITLE13=Kick The Crack
TTITLE14=Comin' Home
TTITLE15=Save Yourself
EXTD=
EXTT0=
EXTT1=
EXTT2=
EXTT3=
EXTT4=
EXTT5=
EXTT6=
EXTT7=
EXTT8=
EXTT9=
EXTT10=
EXTT11=
EXTT12=
EXTT13=
EXTT14=
EXTT15=
PLAYORDER=
